# xmcd
#
# Track frame offsets:
#	150
#	20322
#	33535
#	50492
#	67342
#	80914
#	101265
#	120042
#	142614
#	160185
#	178594
#	197742
#	213024
#	229811
#
# Disc length: 3298 seconds
#
# Revision: 2
# Processed by: cddbd v1.5.1PL0 Copyright (c) Steve Scherf et al.
# Submitted via: EasyCDDAExtractor 8.2.1.1
#
DISCID=b20ce00e
DTITLE=яелос амтымгс - лиа амапмог
DYEAR=2003
DGENRE=казйа
TTITLE0=лиа амапмог
TTITLE1=стола ле стола
TTITLE2=поиа молифеис пыс еисаи
TTITLE3=мыяис
TTITLE4=йалиа сам есема
TTITLE5=йамемас дем лпояеи ма лас выяисеи
TTITLE6=ецы еилаи еды
TTITLE7=ока вахгйам
TTITLE8=ма 'неяа ти хес
TTITLE9=ла де циметаи
TTITLE10=тыяа се хекы
TTITLE11=дем тг жобалаи тг фыг
TTITLE12=йалиа цумаийа
TTITLE13=мажхакимг
EXTD=
EXTT0=
EXTT1=
EXTT2=
EXTT3=
EXTT4=
EXTT5=
EXTT6=
EXTT7=
EXTT8=
EXTT9=
EXTT10=
EXTT11=
EXTT12=
EXTT13=
PLAYORDER=
